<svg width="128" height="128" viewBox="0 0 128 128" fill="none" xmlns="http://www.w3.org/2000/svg">
<path fill-rule="evenodd" clip-rule="evenodd" d="M124 64C124 97.1371 97.1371 124 64 124C30.8629 124 4 97.1371 4 64C4 30.8629 30.8629 4 64 4C97.1371 4 124 30.8629 124 64ZM128 64C128 99.3462 99.3462 128 64 128C28.6538 128 0 99.3462 0 64C0 28.6538 28.6538 0 64 0C99.3462 0 128 28.6538 128 64ZM28.5858 71.669C27.8047 70.888 27.8047 69.6217 28.5858 68.8406C29.3668 68.0596 30.6332 68.0596 31.4142 68.8406L52.6274 90.0538L96.468 46.2132C97.2491 45.4322 98.5154 45.4322 99.2965 46.2132C100.077 46.9943 100.077 48.2606 99.2965 49.0416L54.0416 94.2965C53.2606 95.0775 51.9942 95.0775 51.2132 94.2965L28.5858 71.669Z" fill="#44BB88"/>
</svg>
