<svg width="12" height="18" viewBox="0 0 12 18" fill="none" xmlns="http://www.w3.org/2000/svg">
<path d="M5.35867 17.649L0.128266 9.44424C-0.0427553 9.18099 -0.0427553 8.84461 0.128266 8.58135L5.35867 0.361974C5.65796 -0.120658 6.34204 -0.120658 6.64133 0.361974L11.8717 8.56673C12.0428 8.82998 12.0428 9.16636 11.8717 9.42962L6.64133 17.649C6.34204 18.117 5.65796 18.117 5.35867 17.649Z" fill="#FBBD30"/>
<path d="M6.01349 1.75098L4.64532 8.65408C4.5313 9.23909 3.97548 9.61935 3.39116 9.50235C2.82109 9.38535 2.45054 8.81496 2.56456 8.21533C2.59306 8.11295 2.62156 7.99595 2.67857 7.9082L6.01349 1.75098Z" fill="#F8D67E"/>
</svg>
